<svg xmlns="http://www.w3.org/2000/svg" width="15.999" height="16.001"><path d="M4.709 16.002a4.713 4.713 0 01-3.381-1.263A4.522 4.522 0 010 11.307V4.689A4.459 4.459 0 014.709-.004h6.642a4.652 4.652 0 013.381 1.325 4.576 4.576 0 011.267 3.368v6.618a4.763 4.763 0 01-1.328 3.428 4.713 4.713 0 01-3.381 1.263zM2.774 2.776a3.022 3.022 0 00-.775 2.157v6.083a3.048 3.048 0 00.83 2.212 3.125 3.125 0 002.157.773h6.027a3.026 3.026 0 002.157-.773 2.833 2.833 0 00.83-2.157V4.988a3.111 3.111 0 00-.775-2.157A2.958 2.958 0 0011.013 2H4.93a3.021 3.021 0 00-2.156.776zM4 8a3.99 3.99 0 013.971-4 4 4 0 110 8A3.992 3.992 0 014 8zm2 0a2 2 0 102-2 2 2 0 00-2 2zm5-4a1 1 0 111 1 .987.987 0 01-1-1z" fill="#868686"/></svg>