<svg xmlns="http://www.w3.org/2000/svg" width="24.063" height="24.002"><path d="M23.101 18.235c-6.307-2.436-7.4-3.466-7.584-3.747v-.727a7.929 7.929 0 001.617-2.98 2.538 2.538 0 00.842-1.551 2.507 2.507 0 00-.4-1.755V5.139c0-3.267-2.021-5.14-5.545-5.14-3.474 0-5.546 1.921-5.546 5.14v2.336a2.5 2.5 0 00-.4 1.751 2.54 2.54 0 00.842 1.554 7.926 7.926 0 001.617 2.981v.728c-.208.322-1.362 1.341-7.585 3.745a1.518 1.518 0 00-.964 1.4v2.857a1.51 1.51 0 001.516 1.513h21.04a1.51 1.51 0 001.511-1.506v-2.857a1.516 1.516 0 00-.961-1.406zm-.455 4.261a.111.111 0 01-.093.121H1.511a.111.111 0 01-.093-.121l.068-2.973c6.983-2.7 8.189-3.846 8.451-4.686a.667.667 0 00.031-.2v-1.142a.687.687 0 00-.2-.48 6.515 6.515 0 01-1.534-2.816.694.694 0 00-.27-.38 1.165 1.165 0 01-.216-1.688.687.687 0 00.154-.431V5.141c0-2.456 1.427-3.754 4.128-3.754 2.738 0 4.126 1.263 4.126 3.754v2.558a.683.683 0 00.154.431 1.168 1.168 0 01.257.912 1.151 1.151 0 01-.473.778.7.7 0 00-.27.381 6.514 6.514 0 01-1.534 2.815.687.687 0 00-.2.48v1.142a.716.716 0 00.03.2c.263.841 1.47 1.991 8.518 4.8z" fill="#868686"/></svg>