<svg xmlns="http://www.w3.org/2000/svg" width="125.623" height="125.542"><path d="M0 62.757a62.811 62.811 0 1162.8 62.78A62.853 62.853 0 010 62.757zm5.286 0A57.525 57.525 0 1062.802 5.278 57.571 57.571 0 005.286 62.757zm41.521 22.274V40.44a6.866 6.866 0 016.862-6.85 6.774 6.774 0 014.192 1.456l28.574 22.29a6.842 6.842 0 01.005 10.783l-28.578 22.3a6.838 6.838 0 01-11.053-5.391zm5.282-44.591v44.591a1.528 1.528 0 002.515 1.227l28.578-22.3a1.557 1.557 0 000-2.45L54.608 39.216a1.5 1.5 0 00-.94-.341 1.564 1.564 0 00-1.58 1.57z" fill="#fff"/></svg>