<svg xmlns="http://www.w3.org/2000/svg" width="17.99" height="17.982"><g fill="#fa9d4c" stroke-linejoin="round"><path d="M3.75 17.472c0-.003 0-.008.002-.015l1.622-5.735a1.02 1.02 0 00-.341-1.08L.506 7.003C.502 7 .496 6.994.502 6.976l.002-.007 5.687-.153a.989.989 0 00.914-.682l1.89-5.61 1.888 5.609a.99.99 0 00.916.683l5.686.153.002.006c.006.019 0 .024-.003.026l-4.53 3.643a1.02 1.02 0 00-.34 1.079l1.623 5.733a.042.042 0 01.002.016L9.57 14.1a.977.977 0 00-.575-.188.978.978 0 00-.574.188l-4.67 3.372z"/><path d="M8.994 2.09L7.58 6.295a1.484 1.484 0 01-1.374 1.022l-4.365.118 3.505 2.818c.479.382.679 1.013.51 1.606l-1.236 4.37 3.508-2.533a1.474 1.474 0 011.735 0l3.508 2.533-1.236-4.369a1.517 1.517 0 01.507-1.605l3.507-2.82-4.362-.118a1.485 1.485 0 01-1.376-1.024L8.994 2.091m0-2.091c.215 0 .396.133.467.344l1.896 5.629a.49.49 0 00.454.344l5.695.153a.489.489 0 01.458.355.517.517 0 01-.168.567l-4.528 3.642a.516.516 0 00-.172.552l1.622 5.734a.516.516 0 01-.185.562.48.48 0 01-.29.1.48.48 0 01-.282-.093l-4.684-3.383a.48.48 0 00-.283-.094.48.48 0 00-.282.094l-4.684 3.383a.48.48 0 01-.282.093.516.516 0 01-.475-.662l1.622-5.734a.516.516 0 00-.172-.552L.193 7.392a.517.517 0 01-.168-.567.488.488 0 01.458-.355l5.695-.153a.49.49 0 00.454-.344L8.527.344A.488.488 0 018.994 0z"/></g></svg>