<svg xmlns="http://www.w3.org/2000/svg" width="17.99" height="17.982"><defs><clipPath id="a"><path d="M210.53 2695.344a.489.489 0 01.934 0l1.9 5.628a.489.489 0 00.454.344l5.7.153a.489.489 0 01.458.355.517.517 0 01-.168.567l-4.528 3.642a.516.516 0 00-.172.552l1.622 5.734a.516.516 0 01-.185.562.471.471 0 01-.572.007l-4.685-3.383a.471.471 0 00-.564 0l-4.685 3.383a.47.47 0 01-.572-.007.516.516 0 01-.185-.562l1.622-5.734a.516.516 0 00-.172-.552l-4.528-3.642a.517.517 0 01-.168-.567.489.489 0 01.458-.355l5.695-.153a.489.489 0 00.454-.344z" fill="#fa9d4c" stroke="#fa9d4c" stroke-linejoin="round"/></clipPath></defs><g data-name="star5"><g data-name="star5" fill="#fa9d4c" stroke-linejoin="round"><path d="M3.75 17.472l.002-.016 1.623-5.734a1.02 1.02 0 00-.342-1.08L.506 7.003C.502 7 .496 6.994.502 6.976l.002-.007 5.687-.153a.988.988 0 00.914-.683L8.995.524l1.888 5.609a.99.99 0 00.916.683l5.686.153.002.005c.006.02 0 .024-.003.027l-4.53 3.643a1.02 1.02 0 00-.34 1.079l1.623 5.733a.043.043 0 01.002.016L9.57 14.1a.977.977 0 00-.574-.188.978.978 0 00-.575.188l-4.67 3.372z"/><path d="M8.995 2.09L7.579 6.295a1.484 1.484 0 01-1.374 1.022l-4.365.118 3.504 2.817c.48.382.68 1.014.512 1.607l-1.237 4.37 3.508-2.533a1.474 1.474 0 011.735 0l3.508 2.533-1.236-4.369a1.518 1.518 0 01.51-1.606l3.505-2.82-4.363-.117a1.486 1.486 0 01-1.377-1.024L8.995 2.091m0-2.091c.214 0 .396.133.467.344l1.895 5.629a.49.49 0 00.454.344l5.695.153a.489.489 0 01.458.355.517.517 0 01-.168.567l-4.528 3.642a.516.516 0 00-.172.552l1.622 5.734a.516.516 0 01-.185.562.48.48 0 01-.29.1.48.48 0 01-.281-.093l-4.685-3.383a.48.48 0 00-.282-.094.48.48 0 00-.283.094l-4.684 3.383a.48.48 0 01-.282.093.48.48 0 01-.29-.1.516.516 0 01-.185-.562l1.622-5.734a.516.516 0 00-.172-.552L.193 7.392a.517.517 0 01-.168-.567.489.489 0 01.458-.355l5.695-.153a.489.489 0 00.454-.344L8.528.344A.488.488 0 018.995 0z"/></g><g clip-path="url(#a)" transform="translate(-202.002 -2695)"><path fill="#fff" d="M210.97 2695H220v18h-9.03z"/></g></g></svg>