<svg xmlns="http://www.w3.org/2000/svg" width="13.999" height="11.76"><path d="M14 1.39a5.581 5.581 0 01-1.646.467A2.962 2.962 0 0013.616.214a5.665 5.665 0 01-1.823.721 2.828 2.828 0 00-2.1-.936 2.865 2.865 0 00-2.039.876 2.981 2.981 0 00-.834 2.091 3.154 3.154 0 00.074.677 8.065 8.065 0 01-5.92-3.1 3.033 3.033 0 00.889 3.963 2.787 2.787 0 01-1.3-.372v.038a2.947 2.947 0 002.306 2.911 2.788 2.788 0 01-1.3.051 2.89 2.89 0 002.683 2.062 5.65 5.65 0 01-3.566 1.27.893.893 0 01-.685-.042 7.926 7.926 0 004.4 1.335 8.094 8.094 0 005.816-2.479 8.43 8.43 0 002.357-5.965c0-.129 0-.257-.009-.385A5.936 5.936 0 0014 1.39z" fill="#868686"/></svg>